<svg width="1080" height="1080" viewBox="0 0 1080 1080" fill="none" xmlns="http://www.w3.org/2000/svg">
<rect width="1080" height="1080" rx="540" fill="black"/>
<rect x="717.477" y="150" width="75" height="750" fill="white"/>
<rect x="791.858" y="150" width="75" height="950.879" transform="rotate(37.5 791.858 150)" fill="white"/>
<rect x="792.5" y="150" width="75" height="179" fill="black"/>
<rect x="732.309" y="104" width="75" height="233.768" transform="rotate(37.5 732.309 104)" fill="black"/>
<rect x="792" y="900" width="75" height="579" transform="rotate(90 792 900)" fill="black"/>
<rect x="703.13" y="413.504" width="50" height="325.264" transform="rotate(37.5 703.13 413.504)" fill="white"/>
<rect x="802" y="150" width="20" height="750" fill="white"/>
<rect x="423.628" y="777.715" width="50" height="110.57" transform="rotate(37.5 423.628 777.715)" fill="white"/>
<rect x="702" y="686" width="50" height="251" transform="rotate(90 702 686)" fill="white"/>
<rect x="702" y="850" width="50" height="372" transform="rotate(90 702 850)" fill="white"/>
<rect x="652" y="751" width="50" height="149" fill="white"/>
<rect x="652.5" y="452" width="50" height="147" fill="white"/>
<rect x="702.5" y="412" width="15" height="87" fill="black"/>
<rect x="590" y="671" width="15" height="87" transform="rotate(90 590 671)" fill="black"/>
<rect x="702" y="736" width="15" height="87" transform="rotate(90 702 736)" fill="black"/>
<rect x="510.41" y="640" width="15" height="116.714" transform="rotate(37.5 510.41 640)" fill="black"/>
<rect x="692.25" y="403" width="15" height="106.505" transform="rotate(37.5 692.25 403)" fill="black"/>
<rect x="390.836" y="796" width="15" height="126.901" transform="rotate(37.5 390.836 796)" fill="black"/>
</svg>
